<mxfile host="app.diagrams.net" modified="2023-11-06T02:53:11.044Z" agent="Mozilla/5.0 (Windows NT 10.0; Win64; x64; rv:109.0) Gecko/20100101 Firefox/116.0" etag="Hi98EilG1zIwK_e5fqrs" version="22.0.8" type="github">
  <diagram id="C5RBs43oDa-KdzZeNtuy" name="Page-1">
    <mxGraphModel dx="880" dy="463" grid="1" gridSize="10" guides="1" tooltips="1" connect="1" arrows="1" fold="1" page="1" pageScale="1" pageWidth="827" pageHeight="1169" math="0" shadow="0">
      <root>
        <mxCell id="WIyWlLk6GJQsqaUBKTNV-0" />
        <mxCell id="WIyWlLk6GJQsqaUBKTNV-1" parent="WIyWlLk6GJQsqaUBKTNV-0" />
        <mxCell id="7BmCoqVtru-b4EfDjL6d-2" style="edgeStyle=orthogonalEdgeStyle;rounded=0;orthogonalLoop=1;jettySize=auto;html=1;entryX=0.5;entryY=0;entryDx=0;entryDy=0;" edge="1" parent="WIyWlLk6GJQsqaUBKTNV-1" source="7BmCoqVtru-b4EfDjL6d-0" target="7BmCoqVtru-b4EfDjL6d-1">
          <mxGeometry relative="1" as="geometry" />
        </mxCell>
        <mxCell id="7BmCoqVtru-b4EfDjL6d-0" value="Start" style="rounded=0;whiteSpace=wrap;html=1;" vertex="1" parent="WIyWlLk6GJQsqaUBKTNV-1">
          <mxGeometry x="340" y="40" width="120" height="60" as="geometry" />
        </mxCell>
        <mxCell id="7BmCoqVtru-b4EfDjL6d-1" value="a,b,c,delta,result" style="shape=parallelogram;perimeter=parallelogramPerimeter;whiteSpace=wrap;html=1;fixedSize=1;" vertex="1" parent="WIyWlLk6GJQsqaUBKTNV-1">
          <mxGeometry x="330" y="160" width="150" height="80" as="geometry" />
        </mxCell>
        <mxCell id="7BmCoqVtru-b4EfDjL6d-20" style="edgeStyle=orthogonalEdgeStyle;rounded=0;orthogonalLoop=1;jettySize=auto;html=1;entryX=0.5;entryY=0;entryDx=0;entryDy=0;" edge="1" parent="WIyWlLk6GJQsqaUBKTNV-1" source="7BmCoqVtru-b4EfDjL6d-10" target="7BmCoqVtru-b4EfDjL6d-19">
          <mxGeometry relative="1" as="geometry" />
        </mxCell>
        <mxCell id="7BmCoqVtru-b4EfDjL6d-10" value="delta=0" style="rhombus;whiteSpace=wrap;html=1;" vertex="1" parent="WIyWlLk6GJQsqaUBKTNV-1">
          <mxGeometry x="315" y="430" width="150" height="120" as="geometry" />
        </mxCell>
        <mxCell id="7BmCoqVtru-b4EfDjL6d-18" style="edgeStyle=orthogonalEdgeStyle;rounded=0;orthogonalLoop=1;jettySize=auto;html=1;" edge="1" parent="WIyWlLk6GJQsqaUBKTNV-1" source="7BmCoqVtru-b4EfDjL6d-11" target="7BmCoqVtru-b4EfDjL6d-17">
          <mxGeometry relative="1" as="geometry" />
        </mxCell>
        <mxCell id="7BmCoqVtru-b4EfDjL6d-11" value="delta&amp;lt;0" style="rhombus;whiteSpace=wrap;html=1;" vertex="1" parent="WIyWlLk6GJQsqaUBKTNV-1">
          <mxGeometry x="100" y="435" width="120" height="110" as="geometry" />
        </mxCell>
        <mxCell id="7BmCoqVtru-b4EfDjL6d-22" style="edgeStyle=orthogonalEdgeStyle;rounded=0;orthogonalLoop=1;jettySize=auto;html=1;entryX=0.5;entryY=0;entryDx=0;entryDy=0;" edge="1" parent="WIyWlLk6GJQsqaUBKTNV-1" source="7BmCoqVtru-b4EfDjL6d-12">
          <mxGeometry relative="1" as="geometry">
            <mxPoint x="655" y="620" as="targetPoint" />
          </mxGeometry>
        </mxCell>
        <mxCell id="7BmCoqVtru-b4EfDjL6d-12" value="delta&amp;gt;0" style="rhombus;whiteSpace=wrap;html=1;" vertex="1" parent="WIyWlLk6GJQsqaUBKTNV-1">
          <mxGeometry x="590" y="435" width="130" height="105" as="geometry" />
        </mxCell>
        <mxCell id="7BmCoqVtru-b4EfDjL6d-35" style="edgeStyle=orthogonalEdgeStyle;rounded=0;orthogonalLoop=1;jettySize=auto;html=1;entryX=0;entryY=0.75;entryDx=0;entryDy=0;" edge="1" parent="WIyWlLk6GJQsqaUBKTNV-1" source="7BmCoqVtru-b4EfDjL6d-17" target="7BmCoqVtru-b4EfDjL6d-32">
          <mxGeometry relative="1" as="geometry" />
        </mxCell>
        <mxCell id="7BmCoqVtru-b4EfDjL6d-17" value="phuong trinh vo nghiem" style="rounded=0;whiteSpace=wrap;html=1;" vertex="1" parent="WIyWlLk6GJQsqaUBKTNV-1">
          <mxGeometry x="85" y="620" width="150" height="80" as="geometry" />
        </mxCell>
        <mxCell id="7BmCoqVtru-b4EfDjL6d-19" value="result=-b/2a" style="rounded=0;whiteSpace=wrap;html=1;" vertex="1" parent="WIyWlLk6GJQsqaUBKTNV-1">
          <mxGeometry x="315" y="615" width="160" height="90" as="geometry" />
        </mxCell>
        <mxCell id="7BmCoqVtru-b4EfDjL6d-34" style="edgeStyle=orthogonalEdgeStyle;rounded=0;orthogonalLoop=1;jettySize=auto;html=1;entryX=1;entryY=0.25;entryDx=0;entryDy=0;" edge="1" parent="WIyWlLk6GJQsqaUBKTNV-1" source="7BmCoqVtru-b4EfDjL6d-23" target="7BmCoqVtru-b4EfDjL6d-32">
          <mxGeometry relative="1" as="geometry" />
        </mxCell>
        <mxCell id="7BmCoqVtru-b4EfDjL6d-23" value="&lt;div&gt;x1=(-b+ sqrt(delta))/2a&lt;/div&gt;&lt;div&gt;x2=(-b- sqrt(delta))/2a&lt;br&gt;&lt;/div&gt;" style="shape=parallelogram;perimeter=parallelogramPerimeter;whiteSpace=wrap;html=1;fixedSize=1;" vertex="1" parent="WIyWlLk6GJQsqaUBKTNV-1">
          <mxGeometry x="585" y="600" width="195" height="100" as="geometry" />
        </mxCell>
        <mxCell id="7BmCoqVtru-b4EfDjL6d-27" style="edgeStyle=orthogonalEdgeStyle;rounded=0;orthogonalLoop=1;jettySize=auto;html=1;entryX=0.5;entryY=0;entryDx=0;entryDy=0;" edge="1" parent="WIyWlLk6GJQsqaUBKTNV-1" source="7BmCoqVtru-b4EfDjL6d-25" target="7BmCoqVtru-b4EfDjL6d-12">
          <mxGeometry relative="1" as="geometry" />
        </mxCell>
        <mxCell id="7BmCoqVtru-b4EfDjL6d-30" style="edgeStyle=orthogonalEdgeStyle;rounded=0;orthogonalLoop=1;jettySize=auto;html=1;" edge="1" parent="WIyWlLk6GJQsqaUBKTNV-1" source="7BmCoqVtru-b4EfDjL6d-25" target="7BmCoqVtru-b4EfDjL6d-11">
          <mxGeometry relative="1" as="geometry" />
        </mxCell>
        <mxCell id="7BmCoqVtru-b4EfDjL6d-31" style="edgeStyle=orthogonalEdgeStyle;rounded=0;orthogonalLoop=1;jettySize=auto;html=1;" edge="1" parent="WIyWlLk6GJQsqaUBKTNV-1" source="7BmCoqVtru-b4EfDjL6d-25" target="7BmCoqVtru-b4EfDjL6d-10">
          <mxGeometry relative="1" as="geometry" />
        </mxCell>
        <mxCell id="7BmCoqVtru-b4EfDjL6d-25" value="delta=b^2-4ac" style="rhombus;whiteSpace=wrap;html=1;" vertex="1" parent="WIyWlLk6GJQsqaUBKTNV-1">
          <mxGeometry x="290" y="310" width="190" height="90" as="geometry" />
        </mxCell>
        <mxCell id="7BmCoqVtru-b4EfDjL6d-26" style="edgeStyle=orthogonalEdgeStyle;rounded=0;orthogonalLoop=1;jettySize=auto;html=1;entryX=0.537;entryY=0.044;entryDx=0;entryDy=0;entryPerimeter=0;" edge="1" parent="WIyWlLk6GJQsqaUBKTNV-1" source="7BmCoqVtru-b4EfDjL6d-1" target="7BmCoqVtru-b4EfDjL6d-25">
          <mxGeometry relative="1" as="geometry" />
        </mxCell>
        <mxCell id="7BmCoqVtru-b4EfDjL6d-32" value="In kết quả và kết thúc" style="rounded=0;whiteSpace=wrap;html=1;" vertex="1" parent="WIyWlLk6GJQsqaUBKTNV-1">
          <mxGeometry x="325" y="820" width="120" height="60" as="geometry" />
        </mxCell>
        <mxCell id="7BmCoqVtru-b4EfDjL6d-33" style="edgeStyle=orthogonalEdgeStyle;rounded=0;orthogonalLoop=1;jettySize=auto;html=1;entryX=0.558;entryY=-0.033;entryDx=0;entryDy=0;entryPerimeter=0;" edge="1" parent="WIyWlLk6GJQsqaUBKTNV-1" source="7BmCoqVtru-b4EfDjL6d-19" target="7BmCoqVtru-b4EfDjL6d-32">
          <mxGeometry relative="1" as="geometry" />
        </mxCell>
      </root>
    </mxGraphModel>
  </diagram>
</mxfile>
